#!OML:ASF X:\für Bonn\!DataBase\2005_08_12_Daniel\c3d\Daniel.ASF
:FULLY-SPECIFIED
:DEGREES
64
root 3.53078 17.1928 -0.122753 18.3949 -104.386 -68.328
lowerback 51.12 12.3918 2.75847
upperback 11.6367 12.3437 -8.62383
thorax -5.24922 5.33533 -15.5902
lowerneck 12.3234 1.29691 -5.64773
upperneck 5.56038 0.536042 15.5109
head -0.502587 -0.18575 5.64516
rclavicle 1.66979e-014 1.59028e-014
rhumerus -8.77482 -2.66002 -78.5502
rradius 41.6819
rwrist 6.0955
rhand -20.5381 20.6963
rfingers 7.12502
rthumb 5.82029 -9.2038
lclavicle 1.66979e-014 1.59028e-014
lhumerus -60.2492 -2.0001 84.3011
lradius 110.813
lwrist 16.9071
lhand -17.8517 -27.53
lfingers 7.12502
lthumb 8.41347 2.28243
rfemur 39.1917 0.420707 8.38597
rtibia 26.5717
rfoot -10.6991 -3.99973
rtoes -6.24261
lfemur -77.9157 -0.867336 -8.11385
ltibia 49.3213
lfoot -3.53786 8.79851
ltoes -19.0275
65
root 3.49632 17.1617 -0.12519 19.1452 -104.419 -69.6363
lowerback 51.5411 12.4256 2.59057
upperback 11.6973 12.2491 -8.5595
thorax -5.2896 5.26549 -15.4216
lowerneck 12.2287 1.30712 -5.42976
upperneck 5.65748 0.56865 15.3381
head -0.457985 -0.1567 5.55143
rclavicle -2.22639e-014 7.31528e-014
rhumerus -8.07846 -4.59258 -80.0701
rradius 39.2565
rwrist 5.59512
rhand -20.7089 20.8059
rfingers 7.12502
rthumb 5.65537 -9.09868
lclavicle -2.22639e-014 7.31528e-014
lhumerus -58.6011 -3.00948 84.933
lradius 111.366
lwrist 16.6397
lhand -18.0519 -27.5738
lfingers 7.12502
lthumb 8.22026 2.2463
rfemur 39.028 0.189796 7.78848
rtibia 27.9614
rfoot -10.8994 -4.17931
rtoes -5.83571
lfemur -78.4505 0.0162724 -10.1419
ltibia 53.4077
lfoot -0.911103 8.88428
ltoes -18.0068
66
root 3.45605 17.1217 -0.126836 20.0828 -104.407 -71.0584
lowerback 51.8623 12.4197 2.42055
upperback 11.7734 12.1164 -8.4962
thorax -5.3072 5.18112 -15.2316
lowerneck 12.1021 1.31736 -5.23405
upperneck 5.78136 0.595874 15.1581
head -0.399799 -0.128393 5.45956
rclavicle -2.14687e-014 1.27222e-014
rhumerus -7.65403 -6.19876 -81.4837
rradius 37.2468
rwrist 4.86363
rhand -20.8538 20.7095
rfingers 7.12502
rthumb 5.51547 -9.19871
lclavicle -2.14687e-014 1.27222e-014
lhumerus -56.7595 -4.05744 85.4988
lradius 111.898
lwrist 16.2866
lhand -18.2533 -27.389
lfingers 7.12502
lthumb 8.02587 2.43862
rfemur 38.9504 -0.0246735 7.22329
rtibia 29.2116
rfoot -11.1441 -4.31536
rtoes -5.19235
lfemur -78.8853 0.71286 -11.9246
ltibia 57.5303
lfoot 1.72646 8.95557
ltoes -17.0711
67
root 3.41713 17.0809 -0.127907 21.3384 -104.368 -72.6726
lowerback 52.0659 12.3834 2.23884
upperback 11.8352 11.9521 -8.46988
thorax -5.32752 5.0865 -15.0625
lowerneck 11.9923 1.32252 -4.99208
upperneck 5.87951 0.624375 14.9714
head -0.351409 -0.100237 5.35795
rclavicle -3.89618e-014 0
rhumerus -7.60762 -7.45206 -82.7961
rradius 35.7353
rwrist 3.94799
rhand -20.9583 20.3883
rfingers 7.12502
rthumb 5.41457 -9.52257
lclavicle -3.89618e-014 0
lhumerus -54.7325 -5.17976 85.9271
lradius 112.455
lwrist 15.8787
lhand -18.4579 -26.931
lfingers 7.12502
lthumb 7.82837 2.90411
rfemur 38.8472 -0.23699 6.68179
rtibia 30.351
rfoot -11.4606 -4.40126
rtoes -4.56038
lfemur -79.2415 1.18754 -13.3767
ltibia 61.4905
lfoot 5.0879 9.36672
ltoes -13.826
68
root 3.38278 17.0409 -0.12829 22.8632 -104.3 -74.3935
lowerback 52.0943 12.3126 2.02627
upperback 11.8904 11.7538 -8.4487
thorax -5.34447 4.97943 -14.8636
lowerneck 11.8838 1.34799 -4.80289
upperneck 5.99848 0.670504 14.8042
head -0.299525 -0.0640786 5.27108
rclavicle -9.42239e-014 1.52667e-013
rhumerus -7.93138 -8.35415 -83.9704
rradius 34.7019
rwrist 3.06821
rhand -20.9812 19.8763
rfingers 7.12502
rthumb 5.39253 -10.035
lclavicle -9.42239e-014 1.52667e-013
lhumerus -52.6056 -6.55665 86.2015
lradius 112.959
lwrist 15.6131
lhand -18.7253 -26.4091
lfingers 7.12502
lthumb 7.57034 3.43542
rfemur 38.6466 -0.466048 6.1763
rtibia 31.4022
rfoot -11.9116 -4.40792
rtoes -4.36503
lfemur -79.508 1.52202 -14.6283
ltibia 65.1863
lfoot 8.84991 9.70864
ltoes -10.8342
69
root 3.35836 17.0068 -0.128845 24.6342 -104.182 -76.1301
lowerback 51.8993 12.1997 1.81292
upperback 11.9381 11.5337 -8.44807
thorax -5.34461 4.87019 -14.6684
lowerneck 11.7189 1.35945 -4.60656
upperneck 6.14141 0.696807 14.628
head -0.229345 -0.0344052 5.18102
rclavicle -2.8625e-014 7.95139e-014
rhumerus -8.55204 -9.08894 -85.0452
rradius 34.0413
rwrist 2.44502
rhand -20.88 19.1823
rfingers 7.12502
rthumb 5.4902 -10.7266
lclavicle -2.8625e-014 7.95139e-014
lhumerus -50.3908 -8.09261 86.3146
lradius 113.382
lwrist 15.3689
lhand -19.0209 -25.8429
lfingers 7.12502
lthumb 7.28496 4.01167
rfemur 38.2584 -0.704189 5.82689
rtibia 32.3674
rfoot -12.46 -4.44041
rtoes -4.27914
lfemur -79.7082 1.72233 -15.6894
ltibia 68.5432
lfoot 12.7087 9.62905
ltoes -8.44447
70
root 3.34662 16.9813 -0.129569 26.8589 -104.041 -78.0707
lowerback 51.4532 12.041 1.54422
upperback 11.9769 11.2573 -8.49321
thorax -5.33517 4.74038 -14.4661
lowerneck 11.5593 1.39908 -4.44522
upperneck 6.26584 0.757946 14.4915
head -0.169722 0.0104226 5.10824
rclavicle 9.14409e-015 -4.13472e-014
rhumerus -9.36934 -9.44893 -86.0351
rradius 33.5972
rwrist 2.02597
rhand -20.6789 18.3977
rfingers 7.12502
rthumb 5.6844 -11.506
lclavicle 9.14409e-015 -4.13472e-014
lhumerus -48.1768 -9.60704 86.225
lradius 113.725
lwrist 15.2085
lhand -19.1497 -25.4092
lfingers 7.12502
lthumb 7.16062 4.44968
rfemur 37.6732 -0.942863 5.60311
rtibia 33.2008
rfoot -13.0138 -4.55592
rtoes -4.429
lfemur -79.8407 1.81816 -16.6743
ltibia 71.54
lfoot 16.1587 8.92102
ltoes -8.52901
71
root 3.34424 16.9629 -0.133562 29.3816 -103.857 -80.0917
lowerback 50.7807 11.8682 1.18179
upperback 11.9832 10.9545 -8.51592
thorax -5.34913 4.5968 -14.1743
lowerneck 11.442 1.4695 -4.3841
upperneck 6.39911 0.846921 14.3732
head -0.11785 0.0654379 5.05755
rclavicle -5.80451e-014 8.90555e-014
rhumerus -10.2825 -9.34469 -86.8717
rradius 33.139
rwrist 1.81778
rhand -20.3818 17.5745
rfingers 7.12502
rthumb 5.97119 -12.3213
lclavicle -5.80451e-014 8.90555e-014
lhumerus -45.9359 -11.0382 85.9871
lradius 113.956
lwrist 15.0773
lhand -19.0697 -25.091
lfingers 7.12502
lthumb 7.23785 4.76525
rfemur 36.9571 -1.16089 5.60268
rtibia 33.873
rfoot -13.6084 -4.84126
rtoes -4.68431
lfemur -79.8887 1.83328 -17.5455
ltibia 74.1955
lfoot 19.0779 7.85439
ltoes -9.65212
72
root 3.35496 16.956 -0.1393 32.24 -103.665 -82.2977
lowerback 49.9556 11.6705 0.776889
upperback 11.9795 10.6236 -8.55067
thorax -5.35531 4.44265 -13.8559
lowerneck 11.3506 1.56034 -4.41542
upperneck 6.5017 0.955601 14.3127
head -0.0827349 0.125868 5.04001
rclavicle 5.96354e-015 1.90833e-014
rhumerus -11.2011 -8.91484 -87.6343
rradius 32.5286
rwrist 1.85459
rhand -19.9897 16.9255
rfingers 7.12502
rthumb 6.34978 -12.9593
lclavicle 5.96354e-015 1.90833e-014
lhumerus -43.5365 -12.4576 85.6003
lradius 114.103
lwrist 14.9921
lhand -18.8197 -24.7829
lfingers 7.12502
lthumb 7.47917 5.0649
rfemur 36.1428 -1.38873 5.69236
rtibia 34.3953
rfoot -14.1483 -5.19897
rtoes -4.86876
lfemur -79.7437 1.66432 -18.2744
ltibia 76.5068
lfoot 21.4629 6.87645
ltoes -10.5726
73
root 3.37697 16.9606 -0.148073 35.352 -103.474 -84.6232
lowerback 48.9872 11.4385 0.336895
upperback 11.9673 10.2529 -8.61641
thorax -5.34782 4.27237 -13.5306
lowerneck 11.1712 1.67112 -4.47118
upperneck 6.66136 1.08264 14.2714
head -0.0193038 0.199707 5.03211
rclavicle -1.21259e-013 6.04305e-014
rhumerus -12.1175 -8.34527 -88.4072
rradius 31.8167
rwrist 2.23775
rhand -19.5011 16.4715
rfingers 7.12502
rthumb 6.82146 -13.3986
lclavicle -1.21259e-013 6.04305e-014
lhumerus -41.0118 -13.8231 85.0448
lradius 114.228
lwrist 14.9013
lhand -18.4756 -24.4776
lfingers 7.12502
lthumb 7.81131 5.35815
rfemur 35.2204 -1.61906 5.87125
rtibia 34.8148
rfoot -14.6781 -5.61186
rtoes -5.14436
lfemur -79.4024 1.37449 -18.9032
ltibia 78.4983
lfoot 23.1648 5.83206
ltoes -13.3804
74
root 3.4019 16.9665 -0.158236 38.7372 -103.279 -87.0978
lowerback 47.0315 11.0733 0.0940336
upperback 12.8862 9.88461 -8.58236
thorax -5.30438 4.06153 -13.4218
lowerneck 10.9441 1.77627 -4.39397
upperneck 6.83737 1.21549 14.1936
head 0.0580547 0.281262 4.99039
rclavicle 2.78299e-014 -6.36111e-015
rhumerus -13.0562 -7.70327 -89.2482
rradius 31.0098
rwrist 2.9762
rhand -19.0782 16.261
rfingers 7.12502
rthumb 7.22967 -13.5955
lclavicle 2.78299e-014 -6.36111e-015
lhumerus -38.3865 -15.1606 84.2988
lradius 114.362
lwrist 14.8429
lhand -18.0833 -24.196
lfingers 7.12502
lthumb 8.18994 5.62524
rfemur 34.1738 -1.90023 6.05979
rtibia 35.2389
rfoot -15.2381 -5.98261
rtoes -5.40882
lfemur -78.9637 1.05524 -19.5035
ltibia 80.2354
lfoot 24.0991 5.02005
ltoes -16.8746
75
root 3.42429 16.9671 -0.16789 42.2873 -103.079 -89.6433
lowerback 45.8775 10.7679 -0.378437
upperback 12.7963 9.44604 -8.72232
thorax -5.24918 3.86694 -13.0848
lowerneck 10.6967 1.90288 -4.33734
upperneck 7.01155 1.37541 14.1268
head 0.135333 0.376415 4.95507
rclavicle -4.96962e-014 1.08139e-013
rhumerus -14.0585 -6.87712 -90.0869
rradius 30.2352
rwrist 3.82715
rhand -18.705 16.2695
rfingers 7.12502
rthumb 7.58987 -13.5743
lclavicle -4.96962e-014 1.08139e-013
lhumerus -35.7411 -16.4072 83.4672
lradius 114.525
lwrist 14.7451
lhand -17.7947 -23.917
lfingers 7.12502
lthumb 8.46851 5.8932
rfemur 32.9998 -2.22838 6.26575
rtibia 35.7374
rfoot -15.8623 -6.33332
rtoes -5.59718
lfemur -78.4501 0.737992 -20.0989
ltibia 81.7888
lfoot 24.4468 4.537
ltoes -19.1951
